<mxfile host="app.diagrams.net" agent="Mozilla/5.0 (Windows NT 10.0; Win64; x64) AppleWebKit/537.36 (KHTML, like Gecko) Chrome/133.0.0.0 Safari/537.36 Edg/133.0.0.0" version="26.0.14">
  <diagram name="Page-1" id="MIoaYuCwweFQ3lQ7ldL3">
    <mxGraphModel dx="1042" dy="627" grid="1" gridSize="10" guides="1" tooltips="1" connect="1" arrows="1" fold="1" page="1" pageScale="1" pageWidth="850" pageHeight="1100" math="0" shadow="0">
      <root>
        <mxCell id="0" />
        <mxCell id="1" parent="0" />
        <mxCell id="3mC3eXM4YjIRtpEjC6gY-1" value="Proceso AS IS" style="swimlane;horizontal=0;whiteSpace=wrap;html=1;startSize=23;" vertex="1" parent="1">
          <mxGeometry x="30" y="70" width="740" height="260" as="geometry">
            <mxRectangle x="40" y="60" width="40" height="140" as="alternateBounds" />
          </mxGeometry>
        </mxCell>
        <mxCell id="3mC3eXM4YjIRtpEjC6gY-4" value="Sisense" style="swimlane;whiteSpace=wrap;html=1;" vertex="1" parent="3mC3eXM4YjIRtpEjC6gY-1">
          <mxGeometry x="40" y="60" width="130" height="140" as="geometry" />
        </mxCell>
        <mxCell id="3mC3eXM4YjIRtpEjC6gY-3" value="Reporte de Activaci贸n" style="whiteSpace=wrap;html=1;shape=mxgraph.basic.document" vertex="1" parent="3mC3eXM4YjIRtpEjC6gY-4">
          <mxGeometry x="40" y="50" width="50" height="60" as="geometry" />
        </mxCell>
        <mxCell id="3mC3eXM4YjIRtpEjC6gY-9" value="carga" style="edgeStyle=orthogonalEdgeStyle;rounded=0;orthogonalLoop=1;jettySize=auto;html=1;entryX=0;entryY=0.5;entryDx=0;entryDy=0;exitX=1;exitY=0.3333333333333333;exitDx=0;exitDy=0;exitPerimeter=0;" edge="1" parent="3mC3eXM4YjIRtpEjC6gY-1" source="3mC3eXM4YjIRtpEjC6gY-5" target="3mC3eXM4YjIRtpEjC6gY-6">
          <mxGeometry relative="1" as="geometry" />
        </mxCell>
        <mxCell id="3mC3eXM4YjIRtpEjC6gY-5" value="Activador" style="shape=umlActor;verticalLabelPosition=bottom;verticalAlign=top;html=1;outlineConnect=0;" vertex="1" parent="3mC3eXM4YjIRtpEjC6gY-1">
          <mxGeometry x="300" y="100" width="30" height="60" as="geometry" />
        </mxCell>
        <mxCell id="3mC3eXM4YjIRtpEjC6gY-6" value="Atomox" style="swimlane;whiteSpace=wrap;html=1;" vertex="1" parent="3mC3eXM4YjIRtpEjC6gY-1">
          <mxGeometry x="500" y="60" width="130" height="140" as="geometry" />
        </mxCell>
        <mxCell id="3mC3eXM4YjIRtpEjC6gY-10" value="M贸dulo de Activaci贸n" style="shape=process;whiteSpace=wrap;html=1;backgroundOutline=1;" vertex="1" parent="3mC3eXM4YjIRtpEjC6gY-6">
          <mxGeometry x="5" y="50" width="120" height="60" as="geometry" />
        </mxCell>
        <mxCell id="3mC3eXM4YjIRtpEjC6gY-8" value="extrae" style="edgeStyle=orthogonalEdgeStyle;rounded=0;orthogonalLoop=1;jettySize=auto;html=1;exitX=1;exitY=0.5;exitDx=0;exitDy=0;entryX=0;entryY=0.3333333333333333;entryDx=0;entryDy=0;entryPerimeter=0;" edge="1" parent="3mC3eXM4YjIRtpEjC6gY-1" source="3mC3eXM4YjIRtpEjC6gY-4" target="3mC3eXM4YjIRtpEjC6gY-5">
          <mxGeometry relative="1" as="geometry" />
        </mxCell>
        <mxCell id="3mC3eXM4YjIRtpEjC6gY-2" value="Integraci贸n Bases de Datos Atomox - pregodwg" style="text;html=1;align=center;verticalAlign=middle;whiteSpace=wrap;rounded=0;fontStyle=1;fontSize=14;" vertex="1" parent="1">
          <mxGeometry x="40" y="10" width="330" height="30" as="geometry" />
        </mxCell>
      </root>
    </mxGraphModel>
  </diagram>
</mxfile>
